<svg data-v-0dd9719b="" version="1.0" xmlns="http://www.w3.org/2000/svg" xmlns:xlink="http://www.w3.org/1999/xlink" width="100%" height="100%" viewBox="0 0 340.000000 250.000000" preserveAspectRatio="xMidYMid meet" color-interpolation-filters="sRGB" style="margin: auto;"> <rect data-v-0dd9719b="" x="0" y="0" width="100%" height="100%" fill="#ffffff" fill-opacity="1" class="background"></rect> <rect data-v-0dd9719b="" x="0" y="0" width="100%" height="100%" fill="url(#watermark)" fill-opacity="1" class="watermarklayer"></rect> <g data-v-0dd9719b="" fill="#333333" class="icon-text-wrapper icon-svg-group iconsvg" transform="translate(59.85075378417969,88.78946685791016)"><g class="iconsvg-imagesvg" transform="translate(0,0)"><g><rect fill="#333333" fill-opacity="0" stroke-width="2" x="0" y="0" width="95.12" height="72.42106545457314" class="image-rect"></rect> <g class="image-svg-svg"><g fill="url(#6g1A6gmnAeLxFw9Sa70vz)" data-gra-ignore="true"><svg x="0" y="0" width="95.12" height="72.42106545457314" style="overflow: visible;"><svg xmlns="http://www.w3.org/2000/svg" xmlns:xlink="http://www.w3.org/1999/xlink" viewBox="0 0 60.04999923706055 45.720001220703125" style="overflow: visible;"><path transform="translate(0 45.720000000000006)" d="M0 0L9.72-45.72L25.34-45.72L16.85-6.05L31.46-6.05L30.24 0L0 0ZM60.05-45.72L50.26 0L34.70 0L44.42-45.72L60.05-45.72Z"></path></svg></svg></g><defs><pattern id="6g1A6gmnAeLxFw9Sa70vz" x="0" y="62.5" width="125" height="125" viewBox="0 0 100 100" preserveAspectRatio="xMidYMid meet" patternTransform="matrix(1,0,0,1,0,0)" patternUnits="userSpaceOnUse"><g data-gra="path-name" fill="#0F7FE0"><svg width="100" height="100" viewBox="0 0 100 100" xmlns="http://www.w3.org/2000/svg">
  <g stroke="none" stroke-width="1" fill-rule="evenodd">
    <g transform="translate(-100.000000, -2309.000000)">
      <path d="M103.813992,2409.0003 L100.001856,2408.99835 L99.9993731,2405.18564 C101.220443,2406.50658 102.493059,2407.77922 103.813992,2409.0003 Z M109.244127,2409.00024 L104.869445,2408.99903 C103.164962,2407.45902 101.539316,2405.83331 99.9993749,2404.12877 L99.9994808,2399.75548 C102.762276,2403.13869 105.860948,2406.2374 109.244127,2409.00024 Z M115.148623,2409.00024 L110.380216,2409.00016 C106.536639,2405.94814 103.051635,2402.4631 99.9996523,2398.61949 L99.9992712,2393.85059 C104.119791,2399.74458 109.254715,2404.8796 115.148623,2409.00024 Z M121.823816,2408.9999 L116.407505,2408.99979 C109.939442,2404.6401 104.359075,2399.05962 99.9995269,2392.59142 L99.9997438,2387.17539 C105.151143,2396.28132 112.718004,2403.84832 121.823816,2408.9999 Z M130.033281,2408.99932 L123.299304,2408.99873 C113.426489,2403.7051 105.293787,2395.57217 100.000475,2385.69909 L100.000492,2378.96593 C105.471769,2392.61883 116.380512,2403.52777 130.033281,2408.99932 Z M144.749905,2408.99983 L132.040533,2409.00001 C117.170276,2403.64251 105.356853,2391.82867 99.9997581,2376.95839 L99.9991666,2364.23869 C102.447683,2387.78032 121.209841,2406.54595 144.749905,2408.99983 Z M199.999791,2364.2507 L200.00009,2376.95939 C194.642887,2391.82903 182.829868,2403.64236 167.960183,2408.99983 L155.250699,2408.99979 C178.786574,2406.54616 197.546157,2387.78657 199.999791,2364.2507 Z M199.999316,2378.96693 L199.999734,2385.69909 C194.706398,2395.57221 186.573644,2403.70518 176.700769,2408.99881 L169.966928,2408.99932 C183.619364,2403.52791 194.527908,2392.61936 199.999316,2378.96693 Z M199.999898,2387.17639 L200.000007,2392.59242 C195.640557,2399.06019 190.060433,2404.64033 183.592704,2408.99979 L178.176393,2408.9999 C187.281871,2403.84851 194.848511,2396.28187 199.999898,2387.17639 Z M200.000238,2393.85159 L199.999762,2398.62049 C196.948102,2402.46354 193.463538,2405.9481 189.620491,2408.99976 L184.851585,2409.00024 C190.74516,2404.87984 195.879837,2399.74516 200.000238,2393.85159 Z M199.999909,2399.75648 L199.99903,2404.13076 C198.459623,2405.83458 196.834582,2407.45962 195.130764,2408.99903 L190.756481,2408.99991 C194.139171,2406.23743 197.23743,2403.13917 199.999909,2399.75648 Z M199.999909,2405.18664 L199.998352,2408.99835 L196.186639,2408.99991 C197.507087,2407.77925 198.779252,2406.50709 199.999909,2405.18664 Z M150.000104,2309.44131 C177.326609,2309.44131 199.558898,2331.6736 199.558898,2359.0001 C199.558898,2386.32661 177.326609,2408.5589 150.000104,2408.5589 C122.673599,2408.5589 100.44131,2386.32661 100.44131,2359.0001 C100.44131,2331.6736 122.673599,2309.44131 150.000104,2309.44131 Z M150.000104,2312.29361 C124.245932,2312.29361 103.293615,2333.24593 103.293615,2359.0001 C103.293615,2384.75428 124.245932,2405.70659 150.000104,2405.70659 C175.754276,2405.70659 196.706594,2384.75428 196.706594,2359.0001 C196.706594,2333.24593 175.754276,2312.29361 150.000104,2312.29361 Z M150.000104,2313.00669 C175.360658,2313.00669 195.993518,2333.63955 195.993518,2359.0001 C195.993518,2384.36066 175.360658,2404.99352 150.000104,2404.99352 C124.63955,2404.99352 104.006691,2384.36066 104.006691,2359.0001 C104.006691,2333.63955 124.63955,2313.00669 150.000104,2313.00669 Z M150.000104,2315.859 C126.211883,2315.859 106.858996,2335.2126 106.858996,2359.0001 C106.858996,2382.78761 126.211883,2402.14121 150.000104,2402.14121 C173.788325,2402.14121 193.141213,2382.78761 193.141213,2359.0001 C193.141213,2335.2126 173.788325,2315.859 150.000104,2315.859 Z M150.000104,2316.57207 C173.39542,2316.57207 192.428137,2335.60479 192.428137,2359.0001 C192.428137,2382.39542 173.39542,2401.42814 150.000104,2401.42814 C126.604788,2401.42814 107.572072,2382.39542 107.572072,2359.0001 C107.572072,2335.60479 126.604788,2316.57207 150.000104,2316.57207 Z M150.000104,2319.42438 C128.177834,2319.42438 110.424377,2337.17783 110.424377,2359.0001 C110.424377,2380.82237 128.177834,2398.57583 150.000104,2398.57583 C171.822374,2398.57583 189.575832,2380.82237 189.575832,2359.0001 C189.575832,2337.17783 171.822374,2319.42438 150.000104,2319.42438 Z M150.000104,2320.13745 C171.428756,2320.13745 188.862756,2337.57074 188.862756,2359.0001 C188.862756,2380.42947 171.428756,2397.86276 150.000104,2397.86276 C128.571452,2397.86276 111.137453,2380.42947 111.137453,2359.0001 C111.137453,2337.57074 128.571452,2320.13745 150.000104,2320.13745 Z M150.000104,2322.98976 C130.143785,2322.98976 113.989757,2339.14379 113.989757,2359.0001 C113.989757,2378.85642 130.143785,2395.01045 150.000104,2395.01045 C169.856423,2395.01045 186.010451,2378.85642 186.010451,2359.0001 C186.010451,2339.14379 169.856423,2322.98976 150.000104,2322.98976 Z M150.000104,2323.70283 C169.462805,2323.70283 185.297375,2339.5374 185.297375,2359.0001 C185.297375,2378.46281 169.462805,2394.29737 150.000104,2394.29737 C130.537403,2394.29737 114.702834,2378.46281 114.702834,2359.0001 C114.702834,2339.5374 130.537403,2323.70283 150.000104,2323.70283 Z M150.000104,2326.55514 C132.109736,2326.55514 117.555138,2341.10974 117.555138,2359.0001 C117.555138,2376.89047 132.109736,2391.44507 150.000104,2391.44507 C167.890472,2391.44507 182.44507,2376.89047 182.44507,2359.0001 C182.44507,2341.10974 167.890472,2326.55514 150.000104,2326.55514 Z M150.000104,2327.26821 C167.497567,2327.26821 181.731994,2341.50335 181.731994,2359.0001 C181.731994,2376.49685 167.497567,2390.73199 150.000104,2390.73199 C132.502641,2390.73199 118.268215,2376.49685 118.268215,2359.0001 C118.268215,2341.50335 132.502641,2327.26821 150.000104,2327.26821 Z M150.000104,2330.12052 C134.075687,2330.12052 121.120519,2343.07569 121.120519,2359.0001 C121.120519,2374.92452 134.075687,2387.87969 150.000104,2387.87969 C165.924521,2387.87969 178.879689,2374.92452 178.879689,2359.0001 C178.879689,2343.07569 165.924521,2330.12052 150.000104,2330.12052 Z M150.000104,2330.8336 C165.530903,2330.8336 178.166613,2343.46931 178.166613,2359.0001 C178.166613,2374.5309 165.530903,2387.16661 150.000104,2387.16661 C134.469305,2387.16661 121.833595,2374.5309 121.833595,2359.0001 C121.833595,2343.46931 134.469305,2330.8336 150.000104,2330.8336 Z M150.000104,2333.6859 C136.041638,2333.6859 124.6859,2345.04164 124.6859,2359.0001 C124.6859,2372.95857 136.041638,2384.31431 150.000104,2384.31431 C163.95857,2384.31431 175.314308,2372.95857 175.314308,2359.0001 C175.314308,2345.04164 163.95857,2333.6859 150.000104,2333.6859 Z M150.000104,2334.39898 C163.564952,2334.39898 174.601232,2345.43526 174.601232,2359.0001 C174.601232,2372.56495 163.564952,2383.60123 150.000104,2383.60123 C136.435256,2383.60123 125.398976,2372.56495 125.398976,2359.0001 C125.398976,2345.43526 136.435256,2334.39898 150.000104,2334.39898 Z M150.000104,2337.25128 C138.007589,2337.25128 128.251281,2347.0083 128.251281,2359.0001 C128.251281,2370.99191 138.007589,2380.74893 150.000104,2380.74893 C161.992619,2380.74893 171.748928,2370.99191 171.748928,2359.0001 C171.748928,2347.0083 161.992619,2337.25128 150.000104,2337.25128 Z M150.000104,2337.96436 C161.599714,2337.96436 171.035851,2347.40049 171.035851,2359.0001 C171.035851,2370.59971 161.599714,2380.03585 150.000104,2380.03585 C138.400494,2380.03585 128.964357,2370.59971 128.964357,2359.0001 C128.964357,2347.40049 138.400494,2337.96436 150.000104,2337.96436 Z M150.000104,2340.81666 C139.97354,2340.81666 131.816662,2348.97354 131.816662,2359.0001 C131.816662,2369.02667 139.97354,2377.18355 150.000104,2377.18355 C160.026668,2377.18355 168.183547,2369.02667 168.183547,2359.0001 C168.183547,2348.97354 160.026668,2340.81666 150.000104,2340.81666 Z M150.000104,2341.52974 C159.63305,2341.52974 167.470471,2349.36645 167.470471,2359.0001 C167.470471,2368.63376 159.63305,2376.47047 150.000104,2376.47047 C140.367158,2376.47047 132.529738,2368.63376 132.529738,2359.0001 C132.529738,2349.36645 140.367158,2341.52974 150.000104,2341.52974 Z M150.000104,2344.38204 C141.939491,2344.38204 135.382043,2350.93949 135.382043,2359.0001 C135.382043,2367.06072 141.939491,2373.61817 150.000104,2373.61817 C158.060717,2373.61817 164.618166,2367.06072 164.618166,2359.0001 C164.618166,2350.93949 158.060717,2344.38204 150.000104,2344.38204 Z M150.000104,2345.09512 C157.667099,2345.09512 163.90509,2351.33311 163.90509,2359.0001 C163.90509,2366.6671 157.667099,2372.90509 150.000104,2372.90509 C142.333109,2372.90509 136.095119,2366.6671 136.095119,2359.0001 C136.095119,2351.33311 142.333109,2345.09512 150.000104,2345.09512 Z M150.000104,2347.94742 C143.905442,2347.94742 138.947424,2352.90544 138.947424,2359.0001 C138.947424,2365.09477 143.905442,2370.05278 150.000104,2370.05278 C156.094766,2370.05278 161.052785,2365.09477 161.052785,2359.0001 C161.052785,2352.90544 156.094766,2347.94742 150.000104,2347.94742 Z M150.000104,2348.6605 C155.701148,2348.6605 160.339709,2353.29906 160.339709,2359.0001 C160.339709,2364.70115 155.701148,2369.33971 150.000104,2369.33971 C144.29906,2369.33971 139.6605,2364.70115 139.6605,2359.0001 C139.6605,2353.29906 144.29906,2348.6605 150.000104,2348.6605 Z M150.000104,2351.5128 C145.871393,2351.5128 142.512804,2354.87139 142.512804,2359.0001 C142.512804,2363.12882 145.871393,2366.4874 150.000104,2366.4874 C154.128815,2366.4874 157.487404,2363.12882 157.487404,2359.0001 C157.487404,2354.87139 154.128815,2351.5128 150.000104,2351.5128 Z M150.000104,2352.22588 C153.735197,2352.22588 156.774328,2355.26501 156.774328,2359.0001 C156.774328,2362.7352 153.735197,2365.77433 150.000104,2365.77433 C146.265011,2365.77433 143.225881,2362.7352 143.225881,2359.0001 C143.225881,2355.26501 146.265011,2352.22588 150.000104,2352.22588 Z M150.000104,2355.07819 C147.837344,2355.07819 146.078185,2356.83806 146.078185,2359.0001 C146.078185,2361.16215 147.837344,2362.92202 150.000104,2362.92202 C152.162864,2362.92202 153.922023,2361.16215 153.922023,2359.0001 C153.922023,2356.83806 152.162864,2355.07819 150.000104,2355.07819 Z M150.000104,2355.79126 C151.769246,2355.79126 153.208947,2357.23096 153.208947,2359.0001 C153.208947,2360.76925 151.769246,2362.20895 150.000104,2362.20895 C148.230962,2362.20895 146.791261,2360.76925 146.791261,2359.0001 C146.791261,2357.23096 148.230962,2355.79126 150.000104,2355.79126 Z M99.999231,2353.7609 L99.9997581,2341.04182 C105.356973,2326.1712 117.170806,2314.35717 132.041533,2308.99984 L144.7609,2308.99923 C121.21589,2311.44839 102.448394,2330.21589 99.999231,2353.7609 Z M200.00009,2341.04082 L199.999728,2353.74891 C197.545419,2330.20931 178.779991,2311.44765 155.238689,2308.99917 L167.958181,2308.99966 C182.828808,2314.35679 194.642647,2326.17051 200.00009,2341.04082 Z M100.000092,2339.03528 L100.000475,2332.30112 C105.294143,2322.42738 113.427583,2314.29401 123.301295,2309.00041 L130.035276,2309.00009 C116.381242,2314.4715 105.471504,2325.38124 100.000092,2339.03528 Z M199.999734,2332.30112 L199.999316,2339.03328 C194.527642,2325.38018 183.618301,2314.47124 169.964932,2309.00009 L176.698775,2309.00033 C186.572549,2314.29394 194.706041,2322.42733 199.999734,2332.30112 Z M99.9997438,2330.82482 L99.9995269,2325.40879 C104.3593,2318.94026 109.940017,2313.35953 116.408505,2308.99974 L121.824817,2308.99974 C112.718559,2314.15133 105.151331,2321.71856 99.9997438,2330.82482 Z M199.999331,2325.40679 L199.999898,2330.82382 C194.848323,2321.718 187.281316,2314.15114 178.175392,2308.99974 L183.591703,2308.99974 C190.059524,2313.35908 195.639756,2318.93911 199.999331,2325.40679 Z M99.9992712,2324.14962 L100.00005,2319.38022 C103.051938,2315.53681 106.536806,2312.05194 110.380216,2309.00005 L115.149623,2308.99927 C109.255296,2313.12002 104.120024,2318.2553 99.9992712,2324.14962 Z M200.000158,2319.38022 L200.000238,2324.14862 C195.879604,2318.25472 190.744579,2313.11979 184.850586,2308.99927 L189.619491,2308.99965 C193.4631,2312.05163 196.948138,2315.53664 200.000158,2319.38022 Z M99.9999731,2318.24413 L99.9993749,2313.87144 C101.539917,2312.16623 103.166231,2310.53992 104.871441,2308.99937 L109.244127,2308.99997 C105.861149,2311.76264 102.762644,2314.86115 99.9999731,2318.24413 Z M199.99903,2313.86944 L200.000235,2318.24413 C197.237401,2314.86095 194.138692,2311.76228 190.755478,2308.99948 L195.128768,2308.99937 C196.833312,2310.53932 198.459022,2312.16496 199.99903,2313.86944 Z M99.9989836,2312.81499 L100.001856,2309.00186 L103.814992,2308.99898 C102.493561,2310.22048 101.22048,2311.49356 99.9989836,2312.81499 Z M199.998352,2309.00186 L200.0003,2312.81399 C198.779215,2311.49306 197.506585,2310.22044 196.185637,2308.99937 L199.998352,2309.00186 Z"></path>
    </g>
  </g>
</svg></g></pattern></defs></g> <defs><filter id="colors8046542811"><feColorMatrix type="matrix" values="0 0 0 0 0.05859375  0 0 0 0 0.49609375  0 0 0 0 0.875  0 0 0 1 0" class="icon-fecolormatrix"></feColorMatrix></filter> <filter id="colorsf746264097"><feColorMatrix type="matrix" values="0 0 0 0 0.99609375  0 0 0 0 0.99609375  0 0 0 0 0.99609375  0 0 0 1 0" class="icon-fecolormatrix"></feColorMatrix></filter> <filter id="colorsb7273058168"><feColorMatrix type="matrix" values="0 0 0 0 0  0 0 0 0 0  0 0 0 0 0  0 0 0 1 0" class="icon-fecolormatrix"></feColorMatrix></filter></defs></g></g> <g transform="translate(103.1199951171875,9.263731002807617)"><g data-gra="path-name" fill-rule="" class="tp-name iconsvg-namesvg"><g transform="scale(0.92)"><g><path d="M9.357941874634616-27.18L7.250339970295106-3.09 19.010339970295103-3.09 18.74 0 3.3 0 5.677941874634614-27.18 9.357941874634616-27.18ZM29.537941874634615-27.18L27.16 0 23.48 0 25.857941874634616-27.18 29.537941874634615-27.18ZM46.80359473161422-2.67L46.80359473161422-2.67Q47.90359473161422-2.67 48.83321848460207-2.78 49.761967350954656-2.88 50.6003399702951-3.09 51.42871258963555-3.3 52.17408430205807-3.59 52.92033090111584-3.89 53.673576593255696-4.27L53.673576593255696-4.27 54.197633687775976-10.26 49.98763368777598-10.26Q49.627633687775976-10.26 49.426006307116424-10.47 49.23437892645686-10.68 49.26062552551464-10.98L49.26062552551464-10.98 49.44347683228382-13.07 57.783476832283824-13.07 56.87097007170844-2.64Q55.786228460699256-1.9 54.628109695759996-1.35 53.469990930820735-0.8 52.177620125316146-0.43 50.88524931981156-0.06 49.41950136037689 0.12 47.963753400942224 0.3 46.27375340094222 0.3L46.27375340094222 0.3Q43.313753400942225 0.3 40.94211695110341-0.71 38.561355387899845-1.73 36.94145964215229-3.56 35.32156389640473-5.39 34.545534875031095-7.95 33.76950585365746-10.51 34.03809605068205-13.58L34.03809605068205-13.58Q34.31018579424767-16.69 35.51415677287404-19.25 36.718127751500404-21.81 38.6891068923881-23.65 40.659211146640544-25.48 43.31669981016647-26.48 45.97506336032765-27.49 49.16506336032765-27.49L49.16506336032765-27.49Q50.77506336032765-27.49 52.14406608108143-27.25 53.503068801835205-27.01 54.6545737898838-26.57 55.795203891297135-26.12 56.75008603327581-25.49 57.694093288619214-24.85 58.50410235779847-24.05L58.50410235779847-24.05 57.30799628971018-22.38Q56.94337707131196-21.87 56.43337707131196-21.87L56.43337707131196-21.87Q56.12337707131196-21.87 55.781749690652404-22.08L55.781749690652404-22.08Q55.335371629804406-22.35 54.77861732194425-22.73 54.22098812744885-23.1 53.41248404631818-23.46 52.603105078552254-23.81 51.47410235779847-24.05 50.34597452367995-24.3 48.77597452367995-24.3L48.77597452367995-24.3Q46.47597452367995-24.3 44.55035802603551-23.55 42.62474152839107-22.8 41.193132286090034-21.41 39.76064815715374-20.01 38.88742060337241-18.03 38.01419304959108-16.05 37.79809605068205-13.58L37.79809605068205-13.58Q37.57237529878516-11 38.1256481984628-8.98 38.67892109814043-6.96 39.886436969204134-5.56 41.09307795363258-4.15 42.8483363426234-3.41 44.603594731614216-2.67 46.80359473161422-2.67ZM86.71794187463462-27.18L84.34 0 80.64 0 81.72223476781568-12.37 67.07223476781567-12.37 65.99 0 62.3 0 64.67794187463461-27.18 68.36794187463461-27.18 67.30757927270041-15.06 81.95757927270041-15.06 83.01794187463462-27.18 86.71794187463462-27.18ZM90.58794187463461-27.18L111.86794187463461-27.18 111.5976019043395-24.09 102.8176019043395-24.09 100.71 0 97.03 0 99.1376019043395-24.09 90.3176019043395-24.09 90.58794187463461-27.18Z" transform="translate(-3.299999952316284, 27.489999771118164)"></path></g> <!----> <!----> <!----> <!----> <!----> <!----> <g data-gra="path-name-1" fill="#333333" transform="translate(0,30.78999900817871)"><g transform="scale(1)"><path d="M28.048096050682048-13.58L28.048096050682048-13.58Q27.78125562692798-10.53 26.59165908147791-8.02 25.4129374226631-5.52 23.487207601586956-3.74 21.57060289387555-1.95 19.015738890255406-0.98 16.47 0 13.47 0L13.47 0 3.3 0 5.677941874634614-27.18 15.847941874634614-27.18Q18.847941874634614-27.18 21.223077871014468-26.21 23.60733898075906-25.23 25.21073427304766-23.44 26.823254678700994-21.64 27.564533019886188-19.14 28.315811361071376-16.64 28.048096050682048-13.58ZM24.27809605068205-13.58L24.27809605068205-13.58Q24.49769259613212-16.09 23.980045263278186-18.06 23.472397930424258-20.03 22.342257399454773-21.4 21.21124198185003-22.76 19.484233819588695-23.48 17.767225657327362-24.2 15.587225657327362-24.2L15.587225657327362-24.2 9.11722565732736-24.2 7.2607162173072535-2.98 13.730716217307254-2.98Q15.910716217307254-2.98 17.75370805504592-3.7 19.606699892784583-4.42 20.97568447517984-5.78 22.343794170939837-7.13 23.197021724721168-9.11 24.059374391867237-11.08 24.27809605068205-13.58ZM44.947941874634616-27.18L53.44 0 50.59 0Q50.1 0 49.81187216588148-0.25 49.5328694451277-0.49 49.41611513726756-0.87L49.41611513726756-0.87 47.45091565663287-7.44 35.25091565663288-7.44 32.13611513726756-0.87Q31.97636899166874-0.53 31.623621939152002-0.27 31.28 0 30.81 0L30.81 0 27.96 0 41.207941874634614-27.18 44.947941874634616-27.18ZM41.738635460302774-21.13L36.50276061497657-10.09 46.65276061497658-10.09 43.35038523357329-21.15Q43.030498557005-22.18 42.76435621219966-23.71L42.76435621219966-23.71Q42.48611505464943-22.93 42.22924742335759-22.28 41.97237979206574-21.63 41.738635460302774-21.13L41.738635460302774-21.13ZM61.14794187463462-27.18L61.14794187463462-27.18Q61.63794187463461-27.18 61.86744323501151-27.06 62.08694459538839-26.94 62.36369890324854-26.56L62.36369890324854-26.56 76.31105618760236-6.07Q76.30392563273007-6.56 76.32504530458723-7.03 76.34529008980917-7.49 76.38378510176058-7.93L76.38378510176058-7.93 78.06794187463461-27.18 81.28794187463461-27.18 78.91 0 77.05 0Q76.62 0 76.33312329952888-0.15 76.05624659905777-0.3 75.7977425179271-0.66L75.7977425179271-0.66 61.86863546030278-21.13Q61.867515788445594-20.66 61.84727100322366-20.2 61.817901104637-19.75 61.78465541249715-19.37L61.78465541249715-19.37 60.09 0 56.87 0 59.24794187463461-27.18 61.14794187463462-27.18ZM105.20081140238042-5.61L105.20081140238042-5.61Q105.50081140238044-5.61 105.72981412313422-5.37L105.72981412313422-5.37 107.03158203476326-3.79Q105.19272891415822-1.86 102.71824115755022-0.78 100.24375340094223 0.3 96.88375340094223 0.3L96.88375340094223 0.3Q93.94375340094223 0.3 91.6421169511034-0.71 89.34135538789985-1.73 87.82145964215229-3.56 86.29156389640472-5.39 85.5855348750311-7.95 84.87950585365745-10.51 85.14809605068204-13.58L85.14809605068204-13.58Q85.41756113434188-16.66 86.63153211296826-19.22 87.85550309159463-21.78 89.81648223248233-23.62 91.77746137337002-25.46 94.3858249235312-26.47 96.98506336032764-27.49 100.02506336032765-27.49L100.02506336032765-27.49Q103.01506336032764-27.49 105.11369890324855-26.56 107.20233444616943-25.63 108.75235258452796-24.03L108.75235258452796-24.03 107.4053716298044-22.35Q107.25874878373448-22.16 107.0773752574761-22.03 106.896876617853-21.91 106.566876617853-21.91L106.566876617853-21.91Q106.32687661785299-21.91 106.06262457728765-22.09 105.80837253672233-22.27 105.45199447587433-22.54 105.09474152839107-22.8 104.61098812744885-23.1 104.11810961314187-23.41 103.44085666565863-23.67 102.76447860481062-23.94 101.85022656424528-24.12 100.93597452367996-24.3 99.72597452367995-24.3L99.72597452367995-24.3Q97.54597452367996-24.3 95.66035802603551-23.55 93.78474152839108-22.8 92.35400717272529-21.42 90.92239793042425-20.03 90.01829549000767-18.04 89.11419304959108-16.05 88.89809605068204-13.58L88.89809605068204-13.58Q88.67587484532619-11.04 89.2317724049096-9.05 89.78766996449302-7.06 90.93693560882724-5.68 92.07707613979673-4.31 93.73408430205806-3.59 95.40021757768415-2.86 97.39021757768414-2.86L97.39021757768414-2.86Q98.61021757768414-2.86 99.58334087721302-3.01 100.56558929010667-3.15 101.42183588916444-3.45 102.26895737485748-3.76 103.0192021600794-4.22 103.77032183193658-4.69 104.54631457659318-5.33L104.54631457659318-5.33Q104.90081140238043-5.61 105.20081140238042-5.61ZM113.91794187463462-27.18L130.6679418746346-27.18 130.4063507706921-24.19 117.3563507706921-24.19 116.566328139053-15.16 127.126328139053-15.16 126.87348590146308-12.27 116.31348590146308-12.27 115.50246599057776-3 128.55246599057776-3 128.29 0 111.54 0 113.91794187463462-27.18Z" transform="translate(-3.299999952316284, 27.489999771118164)"></path></g></g></g></g> <!----></g></g><defs v-gra="od"></defs></svg>